<?xml version="1.0" encoding="UTF-8"?>
<svg id="Capa_1" data-name="Capa 1" xmlns="http://www.w3.org/2000/svg" xmlns:xlink="http://www.w3.org/1999/xlink" viewBox="0 0 800 800">
  <defs>
    <style>
      .cls-1 {
        fill: #008b8b;
      }

      .cls-1, .cls-2 {
        stroke-width: 0px;
      }

      .cls-2 {
        fill: none;
      }

      .cls-3 {
        clip-path: url(#clippath);
      }
    </style>
    <clipPath id="clippath">
      <rect class="cls-2" width="800" height="800"/>
    </clipPath>
  </defs>
  <g class="cls-3">
    <path class="cls-1" d="M477.88,411.55l-8.67-14.24c-5.61,3.42-8.69,9.81-7.87,16.32.82,6.51,5.39,11.94,11.67,13.86l4.86-15.94ZM322.11,411.55l4.86,15.94c6.28-1.92,10.85-7.34,11.68-13.86.82-6.52-2.26-12.91-7.87-16.32l-8.67,14.24ZM135.39,633.4l-16.54-2.06,16.54,2.06ZM664.61,633.4l16.54-2.06-16.54,2.06ZM533.33,283.33c0,48.27-25.64,90.56-64.12,113.98l17.33,28.47c48-29.22,80.12-82.08,80.12-142.46h-33.33ZM400,150c73.64,0,133.33,59.7,133.33,133.33h33.33c0-92.05-74.62-166.67-166.67-166.67v33.33ZM266.67,283.33c0-73.64,59.7-133.33,133.33-133.33v-33.33c-92.05,0-166.67,74.62-166.67,166.67h33.33ZM330.78,397.32c-38.48-23.42-64.11-65.72-64.11-113.98h-33.33c0,60.38,32.12,113.24,80.12,142.46l17.33-28.47ZM317.25,395.61c-105.23,32.09-184.47,123.74-198.4,235.73l33.08,4.12c12.29-98.73,82.2-179.65,175.05-207.96l-9.72-31.89ZM118.85,631.34c-3.68,29.6,20.84,51.99,47.82,51.99v-33.33c-9.84,0-15.6-7.6-14.74-14.54l-33.08-4.12ZM166.67,683.33h466.67v-33.33H166.67v33.33ZM633.33,683.33c26.98,0,51.5-22.39,47.82-51.99l-33.08,4.12c.86,6.94-4.9,14.54-14.74,14.54v33.33ZM681.15,631.34c-13.94-111.99-93.18-203.64-198.41-235.73l-9.72,31.89c92.85,28.31,162.76,109.23,175.05,207.96l33.08-4.12Z"/>
  </g>
</svg>